<svg xmlns="http://www.w3.org/2000/svg" width="1200" height="630" viewBox="0 0 1200 630" role="img" aria-labelledby="title desc">
  <title id="title">Mata-mata Copa 2026</title>
  <desc id="desc">Arte de compartilhamento para o mata-mata da Copa 2026, com campo, bola e chamada para acompanhar a partida mais recente.</desc>
  <defs>
    <linearGradient id="sky" x1="0" x2="1" y1="0" y2="1">
      <stop offset="0" stop-color="#051a33"/>
      <stop offset="0.45" stop-color="#0a5d68"/>
      <stop offset="1" stop-color="#102d22"/>
    </linearGradient>
    <linearGradient id="gold" x1="0" x2="1">
      <stop offset="0" stop-color="#fff2a8"/>
      <stop offset="0.5" stop-color="#f5c451"/>
      <stop offset="1" stop-color="#bc7a14"/>
    </linearGradient>
    <radialGradient id="light" cx="50%" cy="38%" r="70%">
      <stop offset="0" stop-color="#ffffff" stop-opacity="0.26"/>
      <stop offset="1" stop-color="#ffffff" stop-opacity="0"/>
    </radialGradient>
    <filter id="shadow" x="-20%" y="-20%" width="140%" height="140%">
      <feDropShadow dx="0" dy="16" stdDeviation="16" flood-color="#000000" flood-opacity="0.35"/>
    </filter>
  </defs>
  <rect width="1200" height="630" fill="url(#sky)"/>
  <rect width="1200" height="630" fill="url(#light)"/>
  <path d="M0 452 C170 390 312 402 480 458 C632 508 802 504 1008 430 C1087 402 1155 392 1200 398 L1200 630 L0 630 Z" fill="#0d7a48" opacity="0.96"/>
  <path d="M0 525 C182 462 338 478 520 528 C704 578 880 560 1200 476 L1200 630 L0 630 Z" fill="#0b5e3c" opacity="0.98"/>
  <path d="M124 578 C336 506 842 506 1076 578" fill="none" stroke="#ffffff" stroke-width="3" opacity="0.45"/>
  <circle cx="600" cy="548" r="72" fill="none" stroke="#ffffff" stroke-width="3" opacity="0.32"/>
  <g opacity="0.16" stroke="#ffffff" stroke-width="2">
    <path d="M96 110 L246 34 L394 110 L246 186 Z"/>
    <path d="M824 112 L976 34 L1128 112 L976 190 Z"/>
    <path d="M880 442 L1022 370 L1164 442 L1022 514 Z"/>
  </g>
  <g filter="url(#shadow)">
    <rect x="78" y="76" width="1044" height="364" rx="34" fill="#071426" opacity="0.82"/>
    <rect x="78" y="76" width="1044" height="364" rx="34" fill="none" stroke="#ffffff" stroke-opacity="0.2" stroke-width="2"/>
  </g>
  <g transform="translate(126 118)">
    <text x="0" y="0" fill="#f5c451" font-family="Arial, Helvetica, sans-serif" font-size="26" font-weight="800" letter-spacing="4">EKT SYSTEM</text>
    <text x="0" y="74" fill="#ffffff" font-family="Arial, Helvetica, sans-serif" font-size="78" font-weight="900">COPA 2026</text>
    <text x="0" y="140" fill="#ffffff" font-family="Arial, Helvetica, sans-serif" font-size="52" font-weight="900">MATA-MATA</text>
    <text x="0" y="196" fill="#d9eef0" font-family="Arial, Helvetica, sans-serif" font-size="31" font-weight="700">Partida mais recente ou em andamento</text>
    <text x="0" y="244" fill="#9dd7d8" font-family="Arial, Helvetica, sans-serif" font-size="24" font-weight="700">Fonte FIFA.com • copa2026-c776.onrender.com</text>
  </g>
  <g transform="translate(845 136)">
    <circle cx="130" cy="130" r="112" fill="url(#gold)"/>
    <circle cx="130" cy="130" r="83" fill="#071426"/>
    <path d="M130 38 L150 104 L219 104 L163 143 L184 209 L130 168 L76 209 L97 143 L41 104 L110 104 Z" fill="url(#gold)"/>
    <path d="M64 270 C103 244 155 244 196 270" fill="none" stroke="#f5c451" stroke-width="10" stroke-linecap="round"/>
    <text x="130" y="314" text-anchor="middle" fill="#ffffff" font-family="Arial, Helvetica, sans-serif" font-size="26" font-weight="900">WORLD CUP</text>
  </g>
</svg>
